<?xml version="1.0" encoding="utf-8"?>
<!-- Generator: Adobe Illustrator 18.0.0, SVG Export Plug-In . SVG Version: 6.00 Build 0)  -->
<!DOCTYPE svg PUBLIC "-//W3C//DTD SVG 1.1//EN" "http://www.w3.org/Graphics/SVG/1.1/DTD/svg11.dtd">
<svg version="1.1" id="Layer_1" xmlns="http://www.w3.org/2000/svg" xmlns:xlink="http://www.w3.org/1999/xlink" x="0px" y="0px"
	 viewBox="0 0 432 3024" enable-background="new 0 0 432 3024" xml:space="preserve">
<path fill="#15B9D9" d="M387,1611H262.8c5.4,29.7,23.4,50.4,39.6,63H324c5.4,0,9,3.6,9,9s-3.6,9-9,9H108c-5.4,0-9-3.6-9-9s3.6-9,9-9
	h21.6c16.2-12.6,34.2-33.3,39.6-63H45c-19.8,0-36-16.2-36-36v-207c0-19.8,16.2-36,36-36h342c19.8,0,36,16.2,36,36v207
	C423,1594.8,406.8,1611,387,1611z M156.6,1674h118.8c-14.4-15.3-27-36-31.5-63h-56.7C183.6,1638,171,1658.7,156.6,1674z M405,1368
	c0-9.9-8.1-18-18-18H45c-9.9,0-18,8.1-18,18v171l0,0h378V1368z M405,1557H27l0,0v18c0,9.9,8.1,18,18,18h126l0,0h90l0,0h126
	c9.9,0,18-8.1,18-18V1557z M216,1584c-5.4,0-9-3.6-9-9s3.6-9,9-9s9,3.6,9,9S221.4,1584,216,1584z"/>
</svg>
