<?xml version="1.0" encoding="utf-8"?>
<!-- Generator: Adobe Illustrator 18.0.0, SVG Export Plug-In . SVG Version: 6.00 Build 0)  -->
<!DOCTYPE svg PUBLIC "-//W3C//DTD SVG 1.1//EN" "http://www.w3.org/Graphics/SVG/1.1/DTD/svg11.dtd">
<svg version="1.1" id="Layer_1" xmlns="http://www.w3.org/2000/svg" xmlns:xlink="http://www.w3.org/1999/xlink" x="0px" y="0px"
	 viewBox="0 0 48 48" enable-background="new 0 0 48 48" xml:space="preserve">
<path fill="#047FA5" d="M43,35H29.2c0.6,3.3,2.6,5.6,4.4,7H36c0.6,0,1,0.4,1,1s-0.4,1-1,1H12c-0.6,0-1-0.4-1-1s0.4-1,1-1h2.4
	c1.8-1.4,3.8-3.7,4.4-7H5c-2.2,0-4-1.8-4-4V8c0-2.2,1.8-4,4-4h38c2.2,0,4,1.8,4,4v23C47,33.2,45.2,35,43,35z M17.4,42h13.2
	c-1.6-1.7-3-4-3.5-7h-6.3C20.4,38,19,40.3,17.4,42z M45,8c0-1.1-0.9-2-2-2H5C3.9,6,3,6.9,3,8v19l0,0h42V8z M45,29H3l0,0v2
	c0,1.1,0.9,2,2,2h14l0,0h10l0,0h14c1.1,0,2-0.9,2-2V29z M24,32c-0.6,0-1-0.4-1-1s0.4-1,1-1s1,0.4,1,1S24.6,32,24,32z"/>
</svg>
