<?xml version="1.0" encoding="utf-8"?>
<!-- Generator: Adobe Illustrator 18.0.0, SVG Export Plug-In . SVG Version: 6.00 Build 0)  -->
<!DOCTYPE svg PUBLIC "-//W3C//DTD SVG 1.1//EN" "http://www.w3.org/Graphics/SVG/1.1/DTD/svg11.dtd">
<svg version="1.1" id="Layer_1" xmlns="http://www.w3.org/2000/svg" xmlns:xlink="http://www.w3.org/1999/xlink" x="0px" y="0px"
	 viewBox="0 0 432 3024" enable-background="new 0 0 432 3024" xml:space="preserve">
<path fill="#15B9D9" d="M216,1701c-104.4,0-189-84.6-189-189s84.6-189,189-189s189,84.6,189,189S320.4,1701,216,1701z M320.4,1647
	c-1.8-1.8-3.6-4.5-4.5-6.3c-2.7-3.6-5.4-7.2-7.2-10.8c0,0-12.6-17.1-56.7-18.9c-15.3,0-27-11.7-27-27.9v-8.1c0-0.9,0,0.9,0,0v-9l9-9
	c6.3-2.7,15.3-8.1,21.6-13.5l0.9-0.9c5.4-3.6,12.6-9.9,13.5-12.6v-3.6c3.6-17.1,9-48.6,9-59.4c0-42.3-20.7-63-63-63
	c-43.2,0-63,19.8-63,63c0,10.8,5.4,42.3,9,59.4v3.6c0.9,2.7,7.2,9.9,12.6,13.5l0.9,0.9c7.2,5.4,15.3,10.8,22.5,13.5l9,9v9
	c0,0.9,0-0.9,0,0v8.1c0,16.2-10.8,27.9-26.1,27.9l0,0c-45,1.8-57.6,18.9-57.6,18.9c-2.7,3.6-4.5,7.2-7.2,10.8
	c-1.8,1.8-3.6,4.5-4.5,6.3c28.8,22.5,64.8,36,104.4,36S291.6,1669.5,320.4,1647z M216,1341c-94.5,0-171,76.5-171,171
	c0,48.6,19.8,91.8,53.1,123.3c3.6-5.4,7.2-9.9,9.9-15.3c0,0,15.3-24.3,72-27c5.4,0,9-3.6,9-9.9l0,0c0-4.5,0-8.1,0-8.1
	c0-0.9,0-1.8,0-3.6c-6.3-2.7-14.4-7.2-22.5-13.5c0,0-21.6-13.5-21.6-27.9c0,0-9-45.9-9-63c0-41.4,18-81,81-81c62.1,0,81,39.6,81,81
	c0,16.2-9,63-9,63c0,14.4-21.6,27.9-21.6,27.9c-9,6.3-16.2,10.8-22.5,13.5c0,0.9,0,1.8,0,2.7c0,0,0,3.6,0,8.1l0,0
	c0,5.4,2.7,9.9,9,9.9c57.6,2.7,72,27,72,27c3.6,5.4,7.2,9.9,9.9,15.3c30.6-30.6,51.3-73.8,51.3-122.4
	C387,1417.5,310.5,1341,216,1341z"/>
</svg>
