<?xml version="1.0" encoding="utf-8"?>
<!-- Generator: Adobe Illustrator 18.0.0, SVG Export Plug-In . SVG Version: 6.00 Build 0)  -->
<!DOCTYPE svg PUBLIC "-//W3C//DTD SVG 1.1//EN" "http://www.w3.org/Graphics/SVG/1.1/DTD/svg11.dtd">
<svg version="1.1" id="Layer_1" xmlns="http://www.w3.org/2000/svg" xmlns:xlink="http://www.w3.org/1999/xlink" x="0px" y="0px"
	 viewBox="0 0 48 48" enable-background="new 0 0 48 48" xml:space="preserve">
<path fill="#047FA5" d="M24,45C12.4,45,3,35.6,3,24S12.4,3,24,3s21,9.4,21,21S35.6,45,24,45z M35.6,39c-0.2-0.2-0.4-0.5-0.5-0.7
	c-0.3-0.4-0.6-0.8-0.8-1.2c0,0-1.4-1.9-6.3-2.1c-1.7,0-3-1.3-3-3.1l0-0.9c0-0.1,0,0.1,0,0v-1l1-1c0.7-0.3,1.7-0.9,2.4-1.5l0.1-0.1
	c0.6-0.4,1.4-1.1,1.5-1.4l0-0.4c0.4-1.9,1-5.4,1-6.6c0-4.7-2.3-7-7-7c-4.8,0-7,2.2-7,7c0,1.2,0.6,4.7,1,6.6l0,0.4
	c0.1,0.3,0.8,1.1,1.4,1.5l0.1,0.1c0.8,0.6,1.7,1.2,2.5,1.5l1,1v1c0,0.1,0-0.1,0,0l0,0.9c0,1.8-1.2,3.1-2.9,3.1c0,0,0,0,0,0
	c-5,0.2-6.4,2.1-6.4,2.1c-0.3,0.4-0.5,0.8-0.8,1.2c-0.2,0.2-0.4,0.5-0.5,0.7c3.2,2.5,7.2,4,11.6,4S32.4,41.5,35.6,39z M24,5
	C13.5,5,5,13.5,5,24c0,5.4,2.2,10.2,5.9,13.7c0.4-0.6,0.8-1.1,1.1-1.7c0,0,1.7-2.7,8-3c0.6,0,1-0.4,1-1.1h0c0-0.5,0-0.9,0-0.9
	c0-0.1,0-0.2,0-0.4c-0.7-0.3-1.6-0.8-2.5-1.5c0,0-2.4-1.5-2.4-3.1c0,0-1-5.1-1-7c0-4.6,2-9,9-9c6.9,0,9,4.4,9,9c0,1.8-1,7-1,7
	c0,1.6-2.4,3.1-2.4,3.1c-1,0.7-1.8,1.2-2.5,1.5c0,0.1,0,0.2,0,0.3c0,0,0,0.4,0,0.9h0c0,0.6,0.3,1.1,1,1.1c6.4,0.3,8,3,8,3
	c0.4,0.6,0.8,1.1,1.1,1.7C40.7,34.2,43,29.4,43,24C43,13.5,34.5,5,24,5z"/>
</svg>
